# xmcd
#
# Track frame offsets:
#	150
#	10068
#	24500
#	35820
#	46442
#	61491
#	71485
#	86270
#	99766
#	109624
#	126234
#	138613
#	146712
#	163116
#
# Disc length: 2752 seconds
#
# Revision: 0
# Processed by: cddbd v1.5.2PL0 Copyright (c) Steve Scherf et al.
# Submitted via: audiograbber 1.83.01
#
DISCID=be0abe0e
DTITLE=Spider John Koerner - Spider Blues
DYEAR=1965
DGENRE=Blues
TTITLE0=Good Luck Child
TTITLE1=I Want to be Your Partner
TTITLE2=Nice Legs
TTITLE3=Spider Blues
TTITLE4=Corrina
TTITLE5=Shortin' Bread
TTITLE6=Ramblin' and Tumblin'
TTITLE7=Delia Holmes
TTITLE8=Need a Woman
TTITLE9=I Want to do Something
TTITLE10=Baby, Don't Come Back
TTITLE11=Hal C. Blake
TTITLE12=Things Ain't Right
TTITLE13=Rent Party Rag
EXTD=
EXTT0=
EXTT1=
EXTT2=
EXTT3=
EXTT4=
EXTT5=
EXTT6=
EXTT7=
EXTT8=
EXTT9=
EXTT10=
EXTT11=
EXTT12=
EXTT13=
PLAYORDER=
